<svg width="134.000000" height="24.421898" viewBox="0 0 134 24.4219" fill="none" xmlns="http://www.w3.org/2000/svg" xmlns:xlink="http://www.w3.org/1999/xlink">
	<desc>
			Created with Pixso.
	</desc>
	<defs/>
	<path id="Vector 29" d="M3.14 13.67L4.44 11.88L4.44 3.6L0 3.6L0 24.19L5.55 24.19L3.31 19.04L6.62 13.89L13.24 3.6L15 4.68L5.55 19.06L8.14 24.19L13.89 24.19L10 17.01L9.07 18.29L11.29 22.65L8.89 22.65L7.22 19.06L17.04 3.99L13.24 1.23L1.48 19.06L1.48 5.39L3.14 5.39L3.14 13.67Z" fill="#5FADE0" fill-opacity="1.000000" fill-rule="evenodd"/>
	<path id="Vector 30" d="M28.44 8.9L28.44 23.68M20.37 23.68L22.99 23.68L30.24 23.68M22.99 23.68L22.99 16.75M11.32 0.42L30.24 12.45M16.05 7.92L20.78 10.93L30.24 16.95" stroke="#FFFFFF" stroke-opacity="1.000000" stroke-width="1.000000"/>
	<path id="Union" d="M118.52 22.26C117.74 22.95 116.86 23.49 115.88 23.86C114.91 24.23 113.9 24.42 112.86 24.42C112.06 24.42 111.28 24.31 110.54 24.09C109.8 23.88 109.1 23.58 108.45 23.19C107.81 22.8 107.22 22.32 106.69 21.77C106.15 21.23 105.69 20.62 105.31 19.96C104.93 19.29 104.64 18.57 104.42 17.81C104.22 17.04 104.12 16.25 104.12 15.42C104.12 14.6 104.22 13.8 104.42 13.04C104.64 12.27 104.93 11.55 105.31 10.89C105.69 10.22 106.15 9.61 106.69 9.06C107.22 8.51 107.81 8.04 108.45 7.65C109.1 7.26 109.8 6.95 110.54 6.74C111.28 6.53 112.06 6.42 112.86 6.42C113.9 6.42 114.91 6.6 115.88 6.97C116.86 7.34 117.74 7.87 118.52 8.57L116.73 11.6C116.24 11.06 115.65 10.64 114.98 10.34C114.3 10.05 113.59 9.9 112.86 9.9C112.11 9.9 111.41 10.04 110.76 10.33C110.11 10.62 109.54 11.02 109.05 11.52C108.57 12.01 108.18 12.6 107.9 13.28Q107.8 13.51 107.73 13.75Q107.47 14.55 107.47 15.42Q107.47 16.3 107.73 17.1L107.73 17.1Q107.8 17.34 107.9 17.57C108.18 18.23 108.57 18.81 109.05 19.31C109.54 19.81 110.11 20.21 110.76 20.5C111.41 20.79 112.11 20.94 112.86 20.94Q113.44 20.94 113.99 20.82Q114.49 20.71 114.98 20.5C115.65 20.2 116.24 19.78 116.73 19.23L118.52 22.26ZM44.37 24.04L41 24.04L41 6.66L44.37 6.66L44.37 15.35L50.66 6.66L54.5 6.66L49.17 13.99L54.5 24.04L50.66 24.04L46.95 17.01L44.37 20.56L44.37 24.04ZM55.48 9.85C55.21 10.48 55.08 11.15 55.08 11.87Q55.08 12.68 55.3 13.42Q55.38 13.67 55.48 13.91C55.75 14.54 56.11 15.09 56.56 15.57C57.03 16.04 57.56 16.41 58.18 16.68C58.79 16.96 59.45 17.1 60.14 17.1L63.52 17.1C63.76 17.1 63.98 17.14 64.18 17.23C64.39 17.32 64.56 17.44 64.71 17.6C64.87 17.76 64.99 17.94 65.08 18.15C65.16 18.36 65.21 18.59 65.21 18.83C65.21 19.07 65.16 19.3 65.08 19.51C64.99 19.72 64.87 19.9 64.71 20.07C64.56 20.22 64.39 20.34 64.18 20.43C63.98 20.52 63.76 20.56 63.52 20.56L56.02 20.56L56.02 24.04L63.52 24.04C64.22 24.04 64.88 23.9 65.49 23.63C66.11 23.35 66.65 22.98 67.1 22.51C67.57 22.04 67.93 21.48 68.19 20.85C68.45 20.22 68.59 19.55 68.59 18.83C68.59 18.11 68.45 17.44 68.19 16.8C67.93 16.17 67.57 15.61 67.1 15.14C66.65 14.67 66.11 14.3 65.49 14.03C64.88 13.75 64.22 13.62 63.52 13.62L60.14 13.62C59.91 13.62 59.69 13.57 59.48 13.48C59.28 13.39 59.1 13.27 58.94 13.12C58.79 12.96 58.68 12.77 58.59 12.56C58.5 12.34 58.46 12.11 58.46 11.87C58.46 11.63 58.5 11.4 58.59 11.19C58.68 10.98 58.79 10.8 58.94 10.65C59.1 10.49 59.28 10.36 59.48 10.27C59.69 10.18 59.91 10.14 60.14 10.14L67.89 10.14L67.89 6.66L60.14 6.66C59.45 6.66 58.79 6.8 58.18 7.07Q57.65 7.31 57.21 7.64L57.2 7.64Q56.86 7.89 56.56 8.2C56.11 8.67 55.75 9.22 55.48 9.85ZM84.66 24.04L81.29 24.04L81.29 10.14L76.22 10.14L76.22 6.66L89.73 6.66L89.73 10.14L84.66 10.14L84.66 24.04ZM91.52 24.04L103.09 24.04L103.09 20.56L94.9 20.56L94.9 17.1L100.44 17.1L100.44 13.62L94.9 13.62L94.9 10.14L103.09 10.14L103.09 6.66L91.52 6.66L91.52 24.04ZM120.49 24.04L123.87 24.04L123.87 17.1L130.62 17.1L130.62 24.04L134 24.04L134 6.66L130.62 6.66L130.62 13.62L123.87 13.62L123.87 6.66L120.49 6.66L120.49 24.04Z" fill="#FFFFFF" fill-opacity="1.000000" fill-rule="evenodd"/>
</svg>
