<svg width="30.509888" height="24.192909" viewBox="0 0 30.5099 24.1929" fill="none" xmlns="http://www.w3.org/2000/svg" xmlns:xlink="http://www.w3.org/1999/xlink">
	<desc>
			Created with Pixso.
	</desc>
	<defs/>
	<path id="Vector 29" d="M3.14 13.67L4.44 11.88L4.44 3.6L0 3.6L0 24.19L5.55 24.19L3.31 19.04L6.62 13.89L13.24 3.6L15 4.68L5.55 19.06L8.14 24.19L13.89 24.19L10 17.01L9.07 18.29L11.29 22.65L8.89 22.65L7.22 19.06L17.04 3.99L13.24 1.23L1.48 19.06L1.48 5.39L3.14 5.39L3.14 13.67Z" fill="#5FADE0" fill-opacity="1.000000" fill-rule="evenodd"/>
	<path id="Vector 30" d="M28.44 8.9L28.44 23.68M20.37 23.68L22.99 23.68L30.24 23.68M22.99 23.68L22.99 16.75M11.32 0.42L30.24 12.45M16.05 7.92L20.78 10.93L30.24 16.95" stroke="#FFFFFF" stroke-opacity="1.000000" stroke-width="1.000000"/>
</svg>
