<svg width="18.239990" height="18.333374" viewBox="0 0 18.24 18.3334" fill="none" xmlns="http://www.w3.org/2000/svg" xmlns:xlink="http://www.w3.org/1999/xlink">
	<desc>
			Created with Pixso.
	</desc>
	<defs/>
	<path id="Icon" d="M0.83 0.83L1.92 0.83C2.12 0.83 2.22 0.83 2.31 0.87C2.38 0.9 2.44 0.95 2.48 1.02C2.53 1.1 2.55 1.2 2.58 1.4L2.97 4.16L3.85 10.6C3.96 11.42 4.01 11.83 4.21 12.14C4.38 12.41 4.63 12.63 4.92 12.76C5.25 12.91 5.67 12.91 6.49 12.91L13.62 12.91C14.41 12.91 14.8 12.91 15.12 12.77C15.4 12.65 15.65 12.45 15.82 12.19C16.02 11.9 16.09 11.52 16.24 10.74L17.34 4.95C17.4 4.68 17.42 4.55 17.38 4.44C17.35 4.35 17.29 4.27 17.2 4.22C17.1 4.16 16.97 4.16 16.69 4.16L2.97 4.16M6.66 17.5C6.2 17.5 5.83 17.12 5.83 16.66C5.83 16.2 6.2 15.83 6.66 15.83C7.12 15.83 7.5 16.2 7.5 16.66C7.5 17.12 7.12 17.5 6.66 17.5ZM13.33 17.5C12.87 17.5 12.5 17.12 12.5 16.66C12.5 16.2 12.87 15.83 13.33 15.83C13.79 15.83 14.16 16.2 14.16 16.66C14.16 17.12 13.79 17.5 13.33 17.5Z" stroke="#FFFFFF" stroke-opacity="1.000000" stroke-width="1.666667" stroke-linejoin="round"/>
</svg>
