<svg width="19.666656" height="19.666748" viewBox="0 0 19.6667 19.6667" fill="none" xmlns="http://www.w3.org/2000/svg" xmlns:xlink="http://www.w3.org/1999/xlink">
	<desc>
			Created with Pixso.
	</desc>
	<defs/>
	<path id="Icon" d="M14.83 18.83L18.83 18.83L18.83 14.83M11.83 14.33L11.83 18.83M18.83 11.83L14.33 11.83M17.23 0.83C17.79 0.83 18.07 0.83 18.28 0.94C18.47 1.03 18.62 1.19 18.72 1.37C18.83 1.59 18.83 1.87 18.83 2.43L18.83 6.23C18.83 6.79 18.83 7.07 18.72 7.28C18.62 7.47 18.47 7.62 18.28 7.72C18.07 7.83 17.79 7.83 17.23 7.83L13.43 7.83C12.87 7.83 12.59 7.83 12.37 7.72C12.19 7.62 12.03 7.47 11.94 7.28C11.83 7.07 11.83 6.79 11.83 6.23L11.83 2.43C11.83 1.87 11.83 1.59 11.94 1.37C12.03 1.19 12.19 1.03 12.37 0.94C12.59 0.83 12.87 0.83 13.43 0.83L17.23 0.83ZM6.23 0.83C6.79 0.83 7.07 0.83 7.28 0.94C7.47 1.03 7.62 1.19 7.72 1.37C7.83 1.59 7.83 1.87 7.83 2.43L7.83 6.23C7.83 6.79 7.83 7.07 7.72 7.28C7.62 7.47 7.47 7.62 7.28 7.72C7.07 7.83 6.79 7.83 6.23 7.83L2.43 7.83C1.87 7.83 1.59 7.83 1.37 7.72C1.19 7.62 1.03 7.47 0.94 7.28C0.83 7.07 0.83 6.79 0.83 6.23L0.83 2.43C0.83 1.87 0.83 1.59 0.94 1.37C1.03 1.19 1.19 1.03 1.37 0.94C1.59 0.83 1.87 0.83 2.43 0.83L6.23 0.83ZM6.23 11.83C6.79 11.83 7.07 11.83 7.28 11.94C7.47 12.03 7.62 12.19 7.72 12.37C7.83 12.59 7.83 12.87 7.83 13.43L7.83 17.23C7.83 17.79 7.83 18.07 7.72 18.28C7.62 18.47 7.47 18.62 7.28 18.72C7.07 18.83 6.79 18.83 6.23 18.83L2.43 18.83C1.87 18.83 1.59 18.83 1.37 18.72C1.19 18.62 1.03 18.47 0.94 18.28C0.83 18.07 0.83 17.79 0.83 17.23L0.83 13.43C0.83 12.87 0.83 12.59 0.94 12.37C1.03 12.19 1.19 12.03 1.37 11.94C1.59 11.83 1.87 11.83 2.43 11.83L6.23 11.83Z" stroke="#FFFFFF" stroke-opacity="1.000000" stroke-width="1.666667" stroke-linejoin="round"/>
</svg>
