<svg width="16.000000" height="16.000244" viewBox="0 0 16 16.0002" fill="none" xmlns="http://www.w3.org/2000/svg" xmlns:xlink="http://www.w3.org/1999/xlink">
	<desc>
			Created with Pixso.
	</desc>
	<defs/>
	<path id="Vector 15" d="M11.5 7.77L13.5 9.14L16 7.31C16 4.57 13.1 0 7.5 0L9 1.82L7.5 3.65C9 3.8 11.9 4.84 11.5 7.77Z" fill="#FFD13A" fill-opacity="1.000000" fill-rule="evenodd"/>
	<path id="Vector 11" d="M0 0L0 7.77L2 6.39L4 7.77L4 3.65L6.5 3.65L8 1.82L6.5 0L0 0Z" fill="#81B23E" fill-opacity="1.000000" fill-rule="evenodd"/>
	<path id="Vector 13" d="M2 7.31L0 8.68L0 16L7 16L5.5 14.17L7 12.34L4 12.34L4 8.68L2 7.31Z" fill="#365CA5" fill-opacity="1.000000" fill-rule="evenodd"/>
	<path id="Vector 14" d="M6.5 14.17L8 12.34C9.16 11.88 11.5 10.51 11.5 8.68L13.5 10.05L16 8.22C16 10.97 14 16 8 16L6.5 14.17Z" fill="#A4A6A8" fill-opacity="1.000000" fill-rule="evenodd"/>
</svg>
