<svg width="23.333252" height="19.000000" viewBox="0 0 23.3333 19" fill="none" xmlns="http://www.w3.org/2000/svg" xmlns:xlink="http://www.w3.org/1999/xlink">
	<desc>
			Created with Pixso.
	</desc>
	<defs/>
	<path id="Icon" d="M13.83 4.08L16.36 4.08C16.63 4.08 16.76 4.08 16.88 4.11C16.99 4.13 17.1 4.18 17.2 4.24C17.3 4.3 17.4 4.4 17.59 4.59L21.99 8.99C22.17 9.17 22.27 9.27 22.34 9.38C22.39 9.47 22.44 9.58 22.47 9.69C22.5 9.82 22.5 9.95 22.5 10.21L22.5 13.29C22.5 13.79 22.5 14.04 22.41 14.24C22.3 14.51 22.09 14.72 21.83 14.83C21.63 14.91 21.37 14.91 20.87 14.91M15.45 14.91L13.83 14.91L9.5 14.91M3 14.91C1.8 14.91 0.83 13.94 0.83 12.75L0.83 4.29C0.83 3.08 0.83 2.47 1.06 2.01C1.27 1.6 1.6 1.27 2.01 1.06C2.47 0.83 3.08 0.83 4.29 0.83L10.36 0.83C11.58 0.83 12.18 0.83 12.65 1.06C13.05 1.27 13.38 1.6 13.59 2.01C13.83 2.47 13.83 3.08 13.83 4.29L13.83 14.91M6.25 18.16C4.45 18.16 3 16.71 3 14.91C3 13.12 4.45 11.66 6.25 11.66C8.04 11.66 9.5 13.12 9.5 14.91C9.5 16.71 8.04 18.16 6.25 18.16ZM18.16 18.16C16.67 18.16 15.45 16.95 15.45 15.45C15.45 13.96 16.67 12.75 18.16 12.75C19.66 12.75 20.87 13.96 20.87 15.45C20.87 16.95 19.66 18.16 18.16 18.16Z" stroke="#333333" stroke-opacity="1.000000" stroke-width="1.666667" stroke-linejoin="round"/>
</svg>
