<svg width="20" height="17" viewBox="0 0 20 17" fill="none" xmlns="http://www.w3.org/2000/svg">
<path d="M2.86478 8.23214L2.04663 9.36495V4.1394H0.994722V12.7634L8.41519 1.51099L10.8125 3.25789L4.61796 12.7634L5.66987 15.029H7.18929L5.78675 12.2779L6.37114 11.4687L8.8256 16H5.20236L3.56605 12.7634L9.52687 3.68873L8.41519 3.00657L4.23744 9.50328L2.14857 12.7516L3.56605 16H0.0596924V3.00657H2.86478V8.23214Z" fill="#5FADE0"/>
<path d="M7.2009 1L19.1403 8.59359M18.005 6.35487V15.6806M12.9113 15.6806H14.5662M19.1404 15.6806H14.5662M14.5662 15.6806V11.3082M19.1403 11.4301L13.1706 7.63331L10.1858 5.73491" stroke="#191919" stroke-width="0.8"/>
</svg>
