<svg width="14.000000" height="14.000000" viewBox="0 0 14 14" fill="none" xmlns="http://www.w3.org/2000/svg" xmlns:xlink="http://www.w3.org/1999/xlink">
	<desc>
			Created with Pixso.
	</desc>
	<defs/>
	<path id="Vector" d="M11.21 4.14C11.26 4.13 11.31 4.15 11.37 4.23L13.88 6.72C14.03 6.86 14.03 7.09 13.88 7.2L11.37 9.73C11.31 9.8 11.26 9.82 11.21 9.79C11.17 9.77 11.14 9.71 11.14 9.61L11.14 4.3C11.14 4.21 11.17 4.15 11.21 4.14ZM6.91 0L7.08 0L7.25 0.07L9.85 2.67C9.96 2.81 9.92 2.93 9.73 2.93L8.66 2.93C8.48 2.93 8.33 3.08 8.33 3.26L8.33 5.19C8.33 5.38 8.18 5.53 7.96 5.53L6.07 5.53C5.89 5.53 5.74 5.38 5.74 5.19L5.74 3.26C5.74 3.08 5.59 2.93 5.4 2.93L4.26 2.93C4.07 2.93 4.03 2.81 4.14 2.67L6.74 0.07L6.91 0ZM2.85 4.08C2.89 4.11 2.92 4.17 2.92 4.27L2.92 9.69C2.92 9.78 2.89 9.84 2.85 9.86C2.8 9.87 2.74 9.86 2.66 9.8L0.11 7.2C-0.04 7.09 -0.04 6.86 0.11 6.72L2.66 4.15C2.74 4.08 2.8 4.06 2.85 4.08ZM6.07 8.35L7.96 8.35C8.18 8.35 8.33 8.5 8.33 8.68L8.33 10.73C8.33 10.95 8.48 11.1 8.66 11.1L9.66 11.1C9.85 11.1 9.92 11.21 9.77 11.32L7.25 13.88C7.18 13.95 7.09 13.99 7 14C6.9 13.99 6.81 13.95 6.74 13.88L4.22 11.32C4.07 11.21 4.14 11.1 4.33 11.1L5.4 11.1C5.59 11.1 5.74 10.95 5.74 10.73L5.74 8.69C5.74 8.5 5.89 8.35 6.07 8.35Z" fill="#ED1C24" fill-opacity="1.000000" fill-rule="evenodd"/>
</svg>
