<svg width="23.333252" height="16.833313" viewBox="0 0 23.3333 16.8333" fill="none" xmlns="http://www.w3.org/2000/svg" xmlns:xlink="http://www.w3.org/1999/xlink">
	<desc>
			Created with Pixso.
	</desc>
	<defs/>
	<path id="Icon" d="M22.5 6.25L0.83 6.25M10.58 10.58L5.16 10.58M22.5 12.53C22.5 13.74 22.5 14.35 22.26 14.81C22.05 15.22 21.72 15.55 21.31 15.76C20.85 16 20.24 16 19.03 16L4.29 16C3.08 16 2.47 16 2.01 15.76C1.6 15.55 1.27 15.22 1.06 14.81C0.83 14.35 0.83 13.74 0.83 12.53L0.83 4.29C0.83 3.08 0.83 2.47 1.06 2.01C1.27 1.6 1.6 1.27 2.01 1.06C2.47 0.83 3.08 0.83 4.29 0.83L19.03 0.83C20.24 0.83 20.85 0.83 21.31 1.06C21.72 1.27 22.05 1.6 22.26 2.01C22.5 2.47 22.5 3.08 22.5 4.29L22.5 12.53Z" stroke="#333333" stroke-opacity="1.000000" stroke-width="1.666667" stroke-linejoin="round"/>
</svg>
