<svg width="11.018555" height="16.001953" viewBox="0 0 11.0186 16.002" fill="none" xmlns="http://www.w3.org/2000/svg" xmlns:xlink="http://www.w3.org/1999/xlink">
	<desc>
			Created with Pixso.
	</desc>
	<defs/>
	<path id="Vector" d="M10.53 9.11L5.22 7.93C3.63 7.56 2.64 6.01 3.01 4.43C3.1 4.05 3.25 3.7 3.48 3.38C3.7 3.07 3.98 2.8 4.31 2.6C4.63 2.39 5 2.26 5.38 2.19C5.75 2.13 6.14 2.14 6.52 2.23C8.1 2.59 9.09 4.15 8.72 5.73C8.55 6.52 8.07 7.17 7.42 7.56C7.39 7.56 7.39 7.59 7.39 7.62C7.39 7.64 7.42 7.67 7.45 7.7L9.83 8.24C9.88 8.24 9.94 8.24 9.97 8.18C10.65 7.3 11.01 6.22 11.01 5.11C11.01 3.8 10.51 2.54 9.61 1.59C8.71 0.64 7.48 0.07 6.18 0L5.95 0C4.71 -0.04 3.5 0.34 2.5 1.07C1.87 1.51 1.33 2.07 0.92 2.72C0.5 3.37 0.22 4.09 0.08 4.85C-0.05 5.61 -0.03 6.38 0.13 7.13C0.3 7.88 0.62 8.6 1.06 9.22L5.78 15.94C5.81 15.97 5.84 16 5.87 16C5.9 16 5.92 15.97 5.95 15.94L10.59 9.34C10.59 9.31 10.62 9.31 10.62 9.28C10.62 9.17 10.56 9.14 10.53 9.11Z" fill="#FFC629" fill-opacity="1.000000" fill-rule="nonzero"/>
</svg>
