<svg width="20.000000" height="20.000000" viewBox="0 0 20 20" fill="none" xmlns="http://www.w3.org/2000/svg" xmlns:xlink="http://www.w3.org/1999/xlink">
	<desc>
			Created with Pixso.
	</desc>
	<defs>
		<clipPath id="clip29_1953">
			<rect id="instagram" width="20.000000" height="20.000000" fill="white" fill-opacity="0"/>
		</clipPath>
	</defs>
	<rect id="instagram" width="20.000000" height="20.000000" fill="#FFFFFF" fill-opacity="0"/>
	<g clip-path="url(#clip29_1953)">
		<path id="Vector" d="M14.3 0.62L5.69 0.62C2.89 0.62 0.62 2.89 0.62 5.69L0.62 14.3C0.62 17.1 2.89 19.37 5.69 19.37L14.3 19.37C17.1 19.37 19.37 17.1 19.37 14.3L19.37 5.69C19.37 2.89 17.1 0.62 14.3 0.62ZM17.86 14.3C17.86 16.26 16.26 17.86 14.3 17.86L5.69 17.86C3.73 17.86 2.13 16.26 2.13 14.3L2.13 5.69C2.13 3.73 3.73 2.13 5.69 2.13L14.3 2.13C16.26 2.13 17.86 3.73 17.86 5.69L17.86 14.3Z" fill="#FFFFFF" fill-opacity="1.000000" fill-rule="nonzero"/>
		<path id="Vector" d="M14.25 9.34C14.11 8.43 13.7 7.62 13.06 6.97C12.41 6.32 11.59 5.91 10.69 5.78C10.28 5.72 9.86 5.72 9.45 5.78C8.34 5.94 7.35 6.53 6.68 7.44C6.01 8.35 5.73 9.46 5.89 10.57C6.06 11.69 6.65 12.67 7.56 13.35C8.29 13.89 9.16 14.18 10.06 14.18C10.27 14.18 10.48 14.16 10.69 14.13C11.81 13.97 12.79 13.38 13.46 12.47C14.13 11.56 14.41 10.45 14.25 9.34ZM10.47 12.63C9.75 12.73 9.04 12.55 8.46 12.12C7.88 11.69 7.5 11.07 7.4 10.35C7.29 9.64 7.47 8.93 7.9 8.35C8.33 7.77 8.96 7.39 9.67 7.28C9.81 7.26 9.94 7.25 10.07 7.25C10.2 7.25 10.34 7.26 10.47 7.28C11.65 7.46 12.57 8.37 12.74 9.56C12.96 11.03 11.94 12.41 10.47 12.63Z" fill="#FFFFFF" fill-opacity="1.000000" fill-rule="nonzero"/>
		<path id="Vector" d="M15.33 3.88C15.19 3.74 14.99 3.66 14.79 3.66C14.59 3.66 14.4 3.74 14.26 3.88C14.11 4.03 14.03 4.22 14.03 4.42C14.03 4.62 14.11 4.82 14.26 4.96C14.4 5.1 14.59 5.18 14.79 5.18C14.99 5.18 15.19 5.1 15.33 4.96C15.47 4.82 15.55 4.62 15.55 4.42C15.55 4.22 15.47 4.03 15.33 3.88Z" fill="#FFFFFF" fill-opacity="1.000000" fill-rule="nonzero"/>
	</g>
</svg>
