<svg width="18.000122" height="15.858643" viewBox="0 0 18.0001 15.8586" fill="none" xmlns="http://www.w3.org/2000/svg" xmlns:xlink="http://www.w3.org/1999/xlink">
	<desc>
			Created with Pixso.
	</desc>
	<defs/>
	<path id="Vector" d="M0.31 7.6L4.46 9.17L6.07 14.39C6.17 14.72 6.57 14.85 6.84 14.63L9.15 12.72C9.4 12.52 9.74 12.51 9.99 12.7L14.16 15.76C14.45 15.97 14.86 15.81 14.93 15.46L17.98 0.59C18.06 0.21 17.69 -0.11 17.33 0.03L0.31 6.67C-0.11 6.84 -0.11 7.44 0.31 7.6ZM5.81 8.33L13.91 3.28C14.06 3.19 14.21 3.39 14.08 3.51L7.39 9.8C7.16 10.02 7.01 10.32 6.96 10.64L6.74 12.35C6.71 12.58 6.39 12.6 6.33 12.38L5.45 9.26C5.35 8.91 5.5 8.53 5.81 8.33Z" fill="#FFFFFF" fill-opacity="1.000000" fill-rule="nonzero"/>
</svg>
