<svg width="20.000000" height="20.000000" viewBox="0 0 20 20" fill="none" xmlns="http://www.w3.org/2000/svg" xmlns:xlink="http://www.w3.org/1999/xlink">
	<desc>
			Created with Pixso.
	</desc>
	<defs>
		<clipPath id="clip29_1934">
			<rect id="viber" width="20.000000" height="20.000000" fill="white" fill-opacity="0"/>
		</clipPath>
	</defs>
	<rect id="viber" width="20.000000" height="20.000000" fill="#FFFFFF" fill-opacity="0"/>
	<g clip-path="url(#clip29_1934)">
		<path id="Vector" d="M10.84 5.47C10.85 5.21 11.08 5.01 11.34 5.02C12.32 5.07 13.14 5.37 13.72 5.97C14.3 6.57 14.59 7.41 14.63 8.42C14.65 8.68 14.44 8.9 14.18 8.91C13.92 8.93 13.7 8.72 13.68 8.46C13.64 7.6 13.41 7.01 13.04 6.63C12.67 6.26 12.11 6.02 11.29 5.97C11.02 5.96 10.82 5.73 10.84 5.47Z" fill="#FFFFFF" fill-opacity="1.000000" fill-rule="evenodd"/>
		<path id="Vector" d="M10.11 2.91C10.13 2.65 10.36 2.45 10.62 2.47C12.62 2.61 14.23 3.3 15.4 4.58C16.57 5.85 17.12 7.42 17.07 9.27C17.07 9.53 16.85 9.74 16.59 9.73C16.32 9.73 16.12 9.51 16.12 9.25C16.16 7.62 15.68 6.29 14.7 5.22C13.73 4.16 12.36 3.55 10.55 3.42C10.29 3.4 10.09 3.17 10.11 2.91Z" fill="#FFFFFF" fill-opacity="1.000000" fill-rule="evenodd"/>
		<path id="Vector" d="M9.27 0.47C9.27 0.2 9.49 -0.01 9.75 0C12.51 0.01 14.85 0.94 16.73 2.76C18.61 4.61 19.55 7.11 19.58 10.23C19.58 10.49 19.37 10.71 19.1 10.71C18.84 10.71 18.63 10.5 18.62 10.24C18.6 7.32 17.73 5.08 16.06 3.44C14.38 1.8 12.28 0.96 9.74 0.95C9.48 0.95 9.27 0.73 9.27 0.47Z" fill="#FFFFFF" fill-opacity="1.000000" fill-rule="evenodd"/>
		<path id="Vector" d="M11.41 14.81C11.41 14.81 12.08 14.87 12.44 14.42L13.14 13.54C13.48 13.1 14.29 12.83 15.1 13.27C15.54 13.53 16.34 14.02 16.84 14.39C17.37 14.78 18.46 15.68 18.46 15.68C18.98 16.12 19.1 16.76 18.75 17.44C18.75 17.45 18.74 17.45 18.74 17.45C18.38 18.09 17.9 18.69 17.28 19.25C17.28 19.26 17.28 19.26 17.27 19.26C16.77 19.68 16.27 19.93 15.78 19.98C15.73 19.99 15.65 20 15.57 19.99C15.36 19.99 15.15 19.96 14.94 19.9L14.92 19.87C14.17 19.67 12.92 19.13 10.84 17.99C9.48 17.24 8.36 16.48 7.41 15.72C6.91 15.33 6.39 14.88 5.87 14.36C5.85 14.34 5.83 14.32 5.82 14.31C5.8 14.29 5.78 14.27 5.77 14.26C5.75 14.24 5.73 14.22 5.72 14.2C5.7 14.19 5.68 14.17 5.67 14.15C5.15 13.63 4.69 13.11 4.3 12.61C3.54 11.66 2.78 10.53 2.03 9.18C0.89 7.1 0.36 5.85 0.15 5.1L0.13 5.08C0.06 4.88 0.02 4.67 0.03 4.45C0.02 4.37 0.03 4.29 0.04 4.24C0.1 3.75 0.34 3.26 0.76 2.75C0.76 2.75 0.76 2.75 0.77 2.74C1.33 2.13 1.93 1.64 2.57 1.28C2.58 1.28 2.58 1.27 2.58 1.27C3.26 0.92 3.9 1.04 4.34 1.56C4.34 1.57 5.25 2.65 5.64 3.18C6 3.68 6.5 4.48 6.75 4.93C7.2 5.73 6.92 6.55 6.48 6.89L5.6 7.59C5.15 7.95 5.21 8.61 5.21 8.61C5.21 8.61 6.52 13.57 11.41 14.81Z" fill="#FFFFFF" fill-opacity="1.000000" fill-rule="nonzero"/>
	</g>
</svg>
